<svg width="44" height="32" viewBox="0 0 44 32" fill="none" xmlns="http://www.w3.org/2000/svg">
<path d="M43.9549 19.5486C43.9426 25.9155 38.7795 31.0626 32.4173 31.0503L31.6496 31.0488C29.9511 31.0455 28.5815 29.6696 28.5848 27.9698C28.5881 26.27 29.963 24.8994 31.6615 24.9027L32.4292 24.9042C35.3944 24.9099 37.8076 22.5041 37.8134 19.5367L37.8148 18.7684L31.6733 18.7566C28.2859 18.7501 25.5371 15.9886 25.5437 12.5986L25.5556 6.45253C25.5621 3.06257 28.3215 0.311747 31.7089 0.318286L37.8504 0.330141C41.2379 0.33668 43.9866 3.09814 43.9801 6.4881L43.9741 9.56115L43.9682 12.6342L43.9549 19.5486ZM19.3888 19.5011C19.3765 25.8681 14.2135 31.0151 7.85127 31.0029L7.08358 31.0014C5.38507 30.9981 4.01548 29.6222 4.01876 27.9224C4.02204 26.2226 5.39694 24.852 7.09545 24.8553L7.86313 24.8568C10.8283 24.8625 13.2416 22.4567 13.2473 19.4893L13.2488 18.721L7.10731 18.7092C3.71989 18.7026 0.971126 15.9412 0.97767 12.5512L0.989534 6.40511C0.996078 3.01515 3.75548 0.264325 7.1429 0.270864L13.2844 0.28272C16.6718 0.289259 19.4206 3.05072 19.4141 6.44068L19.4081 9.51373L19.4022 12.5868L19.3888 19.5011Z" fill="black"/>
</svg>
