<svg width="11" height="18" viewBox="0 0 11 18" fill="none" xmlns="http://www.w3.org/2000/svg">
<path fill-rule="evenodd" clip-rule="evenodd" d="M10.6917 8.28644C10.8927 8.49772 11 8.74601 11 9C11 9.25398 10.8927 9.50228 10.6917 9.71356L3.35875 17.4277C3.0889 17.7114 2.66941 17.9083 2.19256 17.9751C1.71571 18.0419 1.22056 17.9731 0.816032 17.7838C0.411507 17.5946 0.130746 17.3004 0.0355126 16.966C-0.0597203 16.6315 0.0383765 16.2843 0.308222 16.0006L6.96291 9L0.308222 1.99941C0.174608 1.85894 0.0817544 1.70138 0.0349624 1.53574C-0.0118287 1.3701 -0.0116418 1.19962 0.0355126 1.03402C0.130746 0.6996 0.411507 0.405404 0.816032 0.216156C1.01633 0.12245 1.24099 0.0573305 1.47717 0.0245148C1.71336 -0.0083009 1.95645 -0.00816985 2.19256 0.0249005C2.66941 0.091689 3.0889 0.288592 3.35875 0.572293L10.6917 8.28644Z" fill="white"/>
</svg>
